<svg width="633" height="123" viewBox="0 0 633 123" fill="none" xmlns="http://www.w3.org/2000/svg">
<path d="M74.8302 19.759L113.137 56.7212L123.744 46.4869L78.9987 3.31252C74.4213 -1.10417 67 -1.10417 62.4226 3.31252C59.953 5.69543 58.7133 9.01685 59.0414 12.3719L64.8233 71.5091L28.2842 36.2526L17.6776 46.4869L63.4173 90.621C67.4452 94.5075 73.9758 94.5075 78.0037 90.621C80.1769 88.5241 81.2677 85.6013 80.9791 82.649L74.8302 19.759Z" fill="#166DE0"/>
<path d="M54.8008 116.421L0 63.544L10.6066 53.3097L65.4074 106.187C68.3363 109.013 73.085 109.013 76.014 106.187L130.815 53.3097L141.421 63.544L86.6206 116.421C77.8338 124.9 63.5876 124.9 54.8008 116.421Z" fill="#166DE0"/>
<path d="M177.376 96.39L188.967 26.5718H174.444L162.853 96.39H177.376Z" fill="#166DE0"/>
<path d="M395.472 56.265L399.461 55.3104C398.825 51.4695 397.279 48.5036 394.825 46.4127C392.37 44.299 388.904 43.2422 384.427 43.2422C381.086 43.2422 378.029 43.8331 375.256 45.015C372.484 46.1968 370.188 47.8445 368.37 49.9581C366.575 52.0718 365.438 54.515 364.961 57.2877C364.393 60.6968 364.995 63.5831 366.768 65.9468C368.563 68.2877 371.529 69.9922 375.666 71.0604L383.609 73.1059C386.609 73.8559 388.745 75.0377 390.018 76.6513C391.291 78.265 391.734 80.265 391.347 82.6513C390.825 85.8559 389.063 88.4922 386.063 90.5604C383.063 92.6286 379.393 93.6627 375.052 93.6627C371.234 93.6627 368.291 92.7877 366.222 91.0377C364.154 89.265 363.041 86.6854 362.881 83.299L358.756 84.1172C358.961 88.4127 360.45 91.7195 363.222 94.0377C365.995 96.3331 369.836 97.4809 374.745 97.4809C378.381 97.4809 381.677 96.8672 384.631 95.64C387.586 94.4127 390.018 92.7081 391.927 90.5263C393.859 88.3218 395.052 85.7763 395.506 82.89C396.075 79.5036 395.495 76.64 393.768 74.299C392.063 71.9581 389.234 70.2763 385.279 69.2536L377.506 67.2422C374.256 66.4013 371.95 65.1854 370.586 63.5945C369.222 62.0036 368.745 59.9809 369.154 57.5263C369.654 54.4354 371.291 51.9127 374.063 49.9581C376.836 48.0036 380.188 47.0263 384.12 47.0263C386.461 47.0263 388.404 47.4013 389.95 48.1513C391.518 48.8786 392.745 49.9354 393.631 51.3218C394.518 52.6854 395.131 54.3331 395.472 56.265Z" fill="#166DE0"/>
<path fill-rule="evenodd" clip-rule="evenodd" d="M427.935 97.4809C423.208 97.4809 419.288 96.3104 416.174 93.9695C413.06 91.6286 410.89 88.4241 409.663 84.3559C408.435 80.2877 408.254 75.6513 409.117 70.4468C409.981 65.2195 411.708 60.5604 414.299 56.4695C416.89 52.3786 420.06 49.1513 423.81 46.7877C427.56 44.424 431.606 43.2422 435.947 43.2422C438.879 43.2422 441.549 43.8331 443.958 45.015C446.39 46.1968 448.435 47.89 450.095 50.0945C451.754 52.2763 452.901 54.9241 453.538 58.0377C454.174 61.1513 454.174 64.6513 453.538 68.5377L453.06 71.1286H413.063C412.383 75.5163 412.488 79.3913 413.379 82.7536C414.31 86.1627 416.038 88.8331 418.56 90.765C421.083 92.674 424.379 93.6286 428.447 93.6286C431.288 93.6286 433.81 93.1513 436.015 92.1968C438.242 91.2195 440.129 90.0377 441.674 88.6513C443.242 87.265 444.47 85.924 445.356 84.6286L448.799 86.1627C447.754 87.9127 446.254 89.6627 444.299 91.4127C442.345 93.14 439.992 94.5831 437.242 95.7422C434.492 96.9013 431.39 97.4809 427.935 97.4809ZM417.879 57.9354C415.958 60.8164 414.601 63.9528 413.807 67.3445H449.515C450.151 63.5718 449.97 60.1627 448.97 57.1172C447.97 54.0491 446.31 51.6172 443.992 49.8218C441.697 48.0263 438.879 47.1286 435.538 47.1286C432.129 47.1286 428.879 48.1172 425.788 50.0945C422.72 52.0491 420.083 54.6627 417.879 57.9354Z" fill="#166DE0"/>
<path fill-rule="evenodd" clip-rule="evenodd" d="M555.487 93.9695C558.6 96.3104 562.521 97.4809 567.248 97.4809C570.702 97.4809 573.805 96.9013 576.555 95.7422C579.305 94.5831 581.657 93.14 583.612 91.4127C585.566 89.6627 587.066 87.9127 588.112 86.1627L584.668 84.6286C583.782 85.924 582.555 87.265 580.987 88.6513C579.441 90.0377 577.555 91.2195 575.327 92.1968C573.123 93.1513 570.6 93.6286 567.759 93.6286C563.691 93.6286 560.396 92.674 557.873 90.765C555.35 88.8331 553.623 86.1627 552.691 82.7536C551.8 79.3913 551.695 75.5163 552.375 71.1286H592.373L592.85 68.5377C593.487 64.6513 593.487 61.1513 592.85 58.0377C592.214 54.9241 591.066 52.2763 589.407 50.0945C587.748 47.89 585.702 46.1968 583.271 45.015C580.862 43.8331 578.191 43.2422 575.259 43.2422C570.918 43.2422 566.873 44.424 563.123 46.7877C559.373 49.1513 556.202 52.3786 553.612 56.4695C551.021 60.5604 549.293 65.2195 548.43 70.4468C547.566 75.6513 547.748 80.2877 548.975 84.3559C550.202 88.4241 552.373 91.6286 555.487 93.9695ZM553.12 67.3445C553.913 63.9528 555.27 60.8164 557.191 57.9354C559.396 54.6627 562.032 52.0491 565.1 50.0945C568.191 48.1172 571.441 47.1286 574.85 47.1286C578.191 47.1286 581.009 48.0263 583.305 49.8218C585.623 51.6172 587.282 54.0491 588.282 57.1172C589.282 60.1627 589.464 63.5718 588.827 67.3445H553.12Z" fill="#166DE0"/>
<path d="M611.285 44.0263L602.558 96.39H606.717L612.444 61.89C612.899 59.0718 613.955 56.5718 615.614 54.39C617.273 52.1854 619.342 50.4581 621.819 49.2081C624.296 47.9581 626.989 47.3331 629.898 47.3331C630.444 47.3331 630.898 47.3672 631.262 47.4354C631.648 47.4809 631.978 47.515 632.251 47.5377L632.967 43.3445C632.626 43.3218 632.285 43.3104 631.944 43.3104H630.853C627.398 43.3104 624.171 44.1286 621.171 45.765C618.171 47.3786 615.898 49.5263 614.353 52.2081H613.978L615.342 44.0263H611.285Z" fill="#166DE0"/>
<path d="M544.569 44.0263L516.921 96.39H512.217L502.023 44.0263H506.285L515.08 91.0377H515.455L539.898 44.0263H544.569Z" fill="#166DE0"/>
<path d="M471.972 44.0263L463.245 96.39H467.404L473.131 61.89C473.586 59.0718 474.643 56.5718 476.302 54.39C477.961 52.1854 480.029 50.4581 482.506 49.2081C484.984 47.9581 487.677 47.3331 490.586 47.3331C491.131 47.3331 491.586 47.3672 491.95 47.4354C492.336 47.4809 492.666 47.515 492.938 47.5377L493.654 43.3445C493.313 43.3218 492.972 43.3104 492.631 43.3104H491.541C488.086 43.3104 484.859 44.1286 481.859 45.765C478.859 47.3786 476.586 49.5263 475.041 52.2081H474.666L476.029 44.0263H471.972Z" fill="#166DE0"/>
<path d="M301.339 96.39L302.737 87.7309L333.589 55.9922L333.725 55.6172H308.975L310.918 44.0263H353.191L351.691 53.4695L322.475 84.424L322.339 84.799H347.293L345.418 96.39H301.339Z" fill="#166DE0"/>
<path d="M247.705 87.7309L246.308 96.39H290.387L292.262 84.799H267.308L267.444 84.424L296.66 53.4695L298.16 44.0263H255.887L253.944 55.6172H278.694L278.558 55.9922L247.705 87.7309Z" fill="#166DE0"/>
<path fill-rule="evenodd" clip-rule="evenodd" d="M212.737 97.4127C207.373 97.4127 202.93 96.3218 199.407 94.14C195.884 91.9354 193.407 88.8218 191.975 84.799C190.566 80.7536 190.327 75.9695 191.259 70.4468C192.168 65.0604 193.998 60.3331 196.748 56.265C199.521 52.1968 202.998 49.0263 207.18 46.7536C211.362 44.4809 216.021 43.3445 221.157 43.3445C224.612 43.3445 227.737 43.9013 230.532 45.015C233.35 46.1059 235.691 47.765 237.555 49.9922C239.418 52.1968 240.691 54.9581 241.373 58.2763C242.077 61.5945 242.066 65.4809 241.339 69.9354L240.691 73.924H205.031L204.964 74.299C204.509 77.049 204.6 79.3331 205.237 81.1513C205.896 82.9695 207.032 84.3331 208.646 85.2422C210.259 86.1286 212.305 86.5718 214.782 86.5718C216.396 86.5718 217.907 86.3445 219.316 85.89C220.748 85.4354 222.021 84.765 223.134 83.8786C224.248 82.9695 225.157 81.8445 225.862 80.5036L239.123 81.39C237.896 84.6172 236.032 87.4354 233.532 89.8445C231.032 92.2309 228.021 94.0945 224.498 95.4354C220.998 96.7536 217.077 97.4127 212.737 97.4127ZM206.656 64.924H228.452C228.793 62.8331 228.657 60.9809 228.043 59.3672C227.43 57.7536 226.407 56.4922 224.975 55.5831C223.543 54.6513 221.782 54.1854 219.691 54.1854C217.555 54.1854 215.555 54.7081 213.691 55.7536C211.827 56.7991 210.259 58.1741 208.987 59.8786C207.83 61.4341 207.053 63.1159 206.656 64.924Z" fill="#166DE0"/>
</svg>
